<mxfile host="app.diagrams.net" modified="2024-06-10T06:39:16.189Z" agent="Mozilla/5.0 (Windows NT 10.0; Win64; x64) AppleWebKit/537.36 (KHTML, like Gecko) Chrome/125.0.0.0 Safari/537.36" etag="jZAuqvrAGCBfUL1ZXPer" version="24.4.13" type="device">
  <diagram name="Page-1" id="_yAdGxOI9ZKn5OwpSb9d">
    <mxGraphModel dx="2097" dy="783" grid="1" gridSize="10" guides="1" tooltips="1" connect="1" arrows="1" fold="1" page="1" pageScale="1" pageWidth="850" pageHeight="1100" math="0" shadow="0">
      <root>
        <mxCell id="0" />
        <mxCell id="1" parent="0" />
        <mxCell id="o8cPld0QiGwnag17MH1Z-75" value="" style="rounded=1;whiteSpace=wrap;html=1;" parent="1" vertex="1">
          <mxGeometry x="-10" y="450" width="940" height="810" as="geometry" />
        </mxCell>
        <mxCell id="o8cPld0QiGwnag17MH1Z-58" value="" style="rounded=1;whiteSpace=wrap;html=1;" parent="1" vertex="1">
          <mxGeometry x="620" y="580" width="185" height="360" as="geometry" />
        </mxCell>
        <mxCell id="o8cPld0QiGwnag17MH1Z-65" style="edgeStyle=orthogonalEdgeStyle;rounded=0;orthogonalLoop=1;jettySize=auto;html=1;" parent="1" source="o8cPld0QiGwnag17MH1Z-54" target="o8cPld0QiGwnag17MH1Z-64" edge="1">
          <mxGeometry relative="1" as="geometry" />
        </mxCell>
        <mxCell id="o8cPld0QiGwnag17MH1Z-54" value="" style="rounded=1;whiteSpace=wrap;html=1;" parent="1" vertex="1">
          <mxGeometry x="270" y="530" width="190" height="460" as="geometry" />
        </mxCell>
        <mxCell id="o8cPld0QiGwnag17MH1Z-1" value="" style="rounded=1;whiteSpace=wrap;html=1;" parent="1" vertex="1">
          <mxGeometry x="150" y="210" width="170" height="120" as="geometry" />
        </mxCell>
        <mxCell id="o8cPld0QiGwnag17MH1Z-2" value="Server&amp;nbsp;" style="text;html=1;align=center;verticalAlign=middle;whiteSpace=wrap;rounded=0;" parent="1" vertex="1">
          <mxGeometry x="200" y="330" width="60" height="30" as="geometry" />
        </mxCell>
        <mxCell id="o8cPld0QiGwnag17MH1Z-3" value="Jfrog&amp;nbsp;" style="text;html=1;align=center;verticalAlign=middle;whiteSpace=wrap;rounded=0;" parent="1" vertex="1">
          <mxGeometry x="200" y="265" width="60" height="10" as="geometry" />
        </mxCell>
        <mxCell id="o8cPld0QiGwnag17MH1Z-4" value="Ipaddress:8081" style="text;html=1;align=center;verticalAlign=middle;whiteSpace=wrap;rounded=0;" parent="1" vertex="1">
          <mxGeometry x="200" y="170" width="60" height="30" as="geometry" />
        </mxCell>
        <mxCell id="o8cPld0QiGwnag17MH1Z-7" value="" style="verticalLabelPosition=bottom;html=1;verticalAlign=top;align=center;strokeColor=none;fillColor=#00BEF2;shape=mxgraph.azure.traffic_manager;pointerEvents=1;" parent="1" vertex="1">
          <mxGeometry x="60" y="220" width="120" height="70" as="geometry" />
        </mxCell>
        <mxCell id="o8cPld0QiGwnag17MH1Z-9" value="RAM&lt;br&gt;CPU&amp;nbsp;&lt;div&gt;&lt;br/&gt;&lt;/div&gt;" style="text;html=1;align=center;verticalAlign=middle;whiteSpace=wrap;rounded=0;" parent="1" vertex="1">
          <mxGeometry x="70" y="300" width="60" height="30" as="geometry" />
        </mxCell>
        <mxCell id="o8cPld0QiGwnag17MH1Z-10" value="Crashed&amp;nbsp;" style="text;html=1;align=center;verticalAlign=middle;whiteSpace=wrap;rounded=0;" parent="1" vertex="1">
          <mxGeometry x="330" y="260" width="60" height="30" as="geometry" />
        </mxCell>
        <mxCell id="o8cPld0QiGwnag17MH1Z-11" value="High availability&amp;nbsp;" style="text;html=1;align=center;verticalAlign=middle;whiteSpace=wrap;rounded=0;" parent="1" vertex="1">
          <mxGeometry x="290" y="10" width="200" height="40" as="geometry" />
        </mxCell>
        <mxCell id="o8cPld0QiGwnag17MH1Z-12" value="" style="rounded=1;whiteSpace=wrap;html=1;" parent="1" vertex="1">
          <mxGeometry x="460" y="215" width="170" height="120" as="geometry" />
        </mxCell>
        <mxCell id="o8cPld0QiGwnag17MH1Z-13" value="Server&amp;nbsp;" style="text;html=1;align=center;verticalAlign=middle;whiteSpace=wrap;rounded=0;" parent="1" vertex="1">
          <mxGeometry x="510" y="335" width="60" height="30" as="geometry" />
        </mxCell>
        <mxCell id="o8cPld0QiGwnag17MH1Z-14" value="Jfrog&amp;nbsp;" style="text;html=1;align=center;verticalAlign=middle;whiteSpace=wrap;rounded=0;" parent="1" vertex="1">
          <mxGeometry x="510" y="270" width="60" height="10" as="geometry" />
        </mxCell>
        <mxCell id="o8cPld0QiGwnag17MH1Z-15" value="Ipaddress:8081" style="text;html=1;align=center;verticalAlign=middle;whiteSpace=wrap;rounded=0;" parent="1" vertex="1">
          <mxGeometry x="510" y="175" width="60" height="30" as="geometry" />
        </mxCell>
        <mxCell id="o8cPld0QiGwnag17MH1Z-16" value="" style="verticalLabelPosition=bottom;html=1;verticalAlign=top;align=center;strokeColor=none;fillColor=#00BEF2;shape=mxgraph.azure.traffic_manager;pointerEvents=1;" parent="1" vertex="1">
          <mxGeometry x="370" y="225" width="120" height="70" as="geometry" />
        </mxCell>
        <mxCell id="o8cPld0QiGwnag17MH1Z-17" value="RAM&lt;br&gt;CPU&amp;nbsp;&lt;div&gt;&lt;br/&gt;&lt;/div&gt;" style="text;html=1;align=center;verticalAlign=middle;whiteSpace=wrap;rounded=0;" parent="1" vertex="1">
          <mxGeometry x="380" y="305" width="60" height="30" as="geometry" />
        </mxCell>
        <mxCell id="o8cPld0QiGwnag17MH1Z-18" value="Crashed&amp;nbsp;" style="text;html=1;align=center;verticalAlign=middle;whiteSpace=wrap;rounded=0;" parent="1" vertex="1">
          <mxGeometry x="640" y="265" width="60" height="30" as="geometry" />
        </mxCell>
        <mxCell id="o8cPld0QiGwnag17MH1Z-28" style="edgeStyle=orthogonalEdgeStyle;rounded=0;orthogonalLoop=1;jettySize=auto;html=1;" parent="1" source="o8cPld0QiGwnag17MH1Z-26" edge="1">
          <mxGeometry relative="1" as="geometry">
            <mxPoint x="290" y="200" as="targetPoint" />
          </mxGeometry>
        </mxCell>
        <mxCell id="o8cPld0QiGwnag17MH1Z-26" value="Loadbalaner" style="text;html=1;align=center;verticalAlign=middle;whiteSpace=wrap;rounded=0;" parent="1" vertex="1">
          <mxGeometry x="340" y="90" width="60" height="30" as="geometry" />
        </mxCell>
        <mxCell id="o8cPld0QiGwnag17MH1Z-29" style="edgeStyle=orthogonalEdgeStyle;rounded=0;orthogonalLoop=1;jettySize=auto;html=1;entryX=0.75;entryY=0;entryDx=0;entryDy=0;" parent="1" source="o8cPld0QiGwnag17MH1Z-27" target="o8cPld0QiGwnag17MH1Z-15" edge="1">
          <mxGeometry relative="1" as="geometry" />
        </mxCell>
        <mxCell id="o8cPld0QiGwnag17MH1Z-27" value="ippublicip" style="text;html=1;align=center;verticalAlign=middle;whiteSpace=wrap;rounded=0;" parent="1" vertex="1">
          <mxGeometry x="400" y="90" width="60" height="30" as="geometry" />
        </mxCell>
        <mxCell id="o8cPld0QiGwnag17MH1Z-31" value="DNS" style="text;html=1;align=center;verticalAlign=middle;whiteSpace=wrap;rounded=0;" parent="1" vertex="1">
          <mxGeometry x="360" y="60" width="60" height="30" as="geometry" />
        </mxCell>
        <mxCell id="o8cPld0QiGwnag17MH1Z-32" value="jfrog.surya.com" style="text;html=1;align=center;verticalAlign=middle;whiteSpace=wrap;rounded=0;" parent="1" vertex="1">
          <mxGeometry x="380" y="40" width="60" height="30" as="geometry" />
        </mxCell>
        <mxCell id="o8cPld0QiGwnag17MH1Z-33" value="" style="rounded=1;whiteSpace=wrap;html=1;" parent="1" vertex="1">
          <mxGeometry x="300" y="550" width="120" height="60" as="geometry" />
        </mxCell>
        <mxCell id="o8cPld0QiGwnag17MH1Z-34" value="Proget&amp;nbsp;" style="text;html=1;align=center;verticalAlign=middle;whiteSpace=wrap;rounded=0;" parent="1" vertex="1">
          <mxGeometry x="330" y="565" width="60" height="30" as="geometry" />
        </mxCell>
        <mxCell id="o8cPld0QiGwnag17MH1Z-35" value="" style="rounded=1;whiteSpace=wrap;html=1;" parent="1" vertex="1">
          <mxGeometry x="652.5" y="745" width="120" height="60" as="geometry" />
        </mxCell>
        <mxCell id="o8cPld0QiGwnag17MH1Z-36" value="DB&amp;nbsp;" style="text;html=1;align=center;verticalAlign=middle;whiteSpace=wrap;rounded=0;" parent="1" vertex="1">
          <mxGeometry x="682.5" y="760" width="60" height="30" as="geometry" />
        </mxCell>
        <mxCell id="o8cPld0QiGwnag17MH1Z-37" value="" style="rounded=1;whiteSpace=wrap;html=1;" parent="1" vertex="1">
          <mxGeometry x="300" y="640" width="120" height="60" as="geometry" />
        </mxCell>
        <mxCell id="o8cPld0QiGwnag17MH1Z-38" value="Proget&amp;nbsp;" style="text;html=1;align=center;verticalAlign=middle;whiteSpace=wrap;rounded=0;" parent="1" vertex="1">
          <mxGeometry x="330" y="655" width="60" height="30" as="geometry" />
        </mxCell>
        <mxCell id="o8cPld0QiGwnag17MH1Z-39" value="" style="rounded=1;whiteSpace=wrap;html=1;" parent="1" vertex="1">
          <mxGeometry x="300" y="730" width="120" height="60" as="geometry" />
        </mxCell>
        <mxCell id="o8cPld0QiGwnag17MH1Z-40" value="Proget&amp;nbsp;" style="text;html=1;align=center;verticalAlign=middle;whiteSpace=wrap;rounded=0;" parent="1" vertex="1">
          <mxGeometry x="330" y="745" width="60" height="30" as="geometry" />
        </mxCell>
        <mxCell id="o8cPld0QiGwnag17MH1Z-41" value="" style="rounded=1;whiteSpace=wrap;html=1;" parent="1" vertex="1">
          <mxGeometry x="300" y="830" width="120" height="60" as="geometry" />
        </mxCell>
        <mxCell id="o8cPld0QiGwnag17MH1Z-42" value="Proget&amp;nbsp;" style="text;html=1;align=center;verticalAlign=middle;whiteSpace=wrap;rounded=0;" parent="1" vertex="1">
          <mxGeometry x="330" y="845" width="60" height="30" as="geometry" />
        </mxCell>
        <mxCell id="o8cPld0QiGwnag17MH1Z-43" value="" style="rounded=1;whiteSpace=wrap;html=1;" parent="1" vertex="1">
          <mxGeometry x="300" y="920" width="120" height="60" as="geometry" />
        </mxCell>
        <mxCell id="o8cPld0QiGwnag17MH1Z-44" value="Proget&amp;nbsp;" style="text;html=1;align=center;verticalAlign=middle;whiteSpace=wrap;rounded=0;" parent="1" vertex="1">
          <mxGeometry x="330" y="935" width="60" height="30" as="geometry" />
        </mxCell>
        <mxCell id="o8cPld0QiGwnag17MH1Z-55" style="edgeStyle=orthogonalEdgeStyle;rounded=0;orthogonalLoop=1;jettySize=auto;html=1;entryX=0;entryY=0.5;entryDx=0;entryDy=0;" parent="1" source="o8cPld0QiGwnag17MH1Z-46" target="o8cPld0QiGwnag17MH1Z-54" edge="1">
          <mxGeometry relative="1" as="geometry" />
        </mxCell>
        <mxCell id="o8cPld0QiGwnag17MH1Z-46" value="" style="rounded=1;whiteSpace=wrap;html=1;" parent="1" vertex="1">
          <mxGeometry x="100" y="550" width="100" height="435" as="geometry" />
        </mxCell>
        <mxCell id="o8cPld0QiGwnag17MH1Z-47" value="F5" style="text;html=1;align=center;verticalAlign=middle;whiteSpace=wrap;rounded=0;" parent="1" vertex="1">
          <mxGeometry x="90" y="790" width="60" height="30" as="geometry" />
        </mxCell>
        <mxCell id="o8cPld0QiGwnag17MH1Z-48" value="VIP" style="text;html=1;align=center;verticalAlign=middle;whiteSpace=wrap;rounded=0;" parent="1" vertex="1">
          <mxGeometry x="120" y="790" width="60" height="30" as="geometry" />
        </mxCell>
        <mxCell id="o8cPld0QiGwnag17MH1Z-49" value="Proget.surya.com" style="text;html=1;align=center;verticalAlign=middle;whiteSpace=wrap;rounded=0;" parent="1" vertex="1">
          <mxGeometry x="120" y="840" width="60" height="30" as="geometry" />
        </mxCell>
        <mxCell id="o8cPld0QiGwnag17MH1Z-50" value="" style="html=1;verticalLabelPosition=bottom;align=center;labelBackgroundColor=#ffffff;verticalAlign=top;strokeWidth=2;strokeColor=#0080F0;shadow=0;dashed=0;shape=mxgraph.ios7.icons.user;" parent="1" vertex="1">
          <mxGeometry x="10" y="845" width="30" height="30" as="geometry" />
        </mxCell>
        <mxCell id="o8cPld0QiGwnag17MH1Z-51" style="edgeStyle=orthogonalEdgeStyle;rounded=0;orthogonalLoop=1;jettySize=auto;html=1;entryX=0.004;entryY=0.702;entryDx=0;entryDy=0;entryPerimeter=0;" parent="1" source="o8cPld0QiGwnag17MH1Z-50" target="o8cPld0QiGwnag17MH1Z-46" edge="1">
          <mxGeometry relative="1" as="geometry" />
        </mxCell>
        <mxCell id="o8cPld0QiGwnag17MH1Z-57" value="HA&amp;nbsp;" style="text;html=1;align=center;verticalAlign=middle;whiteSpace=wrap;rounded=0;" parent="1" vertex="1">
          <mxGeometry x="330" y="480" width="60" height="30" as="geometry" />
        </mxCell>
        <mxCell id="o8cPld0QiGwnag17MH1Z-61" value="" style="rounded=1;whiteSpace=wrap;html=1;" parent="1" vertex="1">
          <mxGeometry x="652.5" y="630" width="120" height="60" as="geometry" />
        </mxCell>
        <mxCell id="o8cPld0QiGwnag17MH1Z-62" value="DB&amp;nbsp;" style="text;html=1;align=center;verticalAlign=middle;whiteSpace=wrap;rounded=0;" parent="1" vertex="1">
          <mxGeometry x="682.5" y="645" width="60" height="30" as="geometry" />
        </mxCell>
        <mxCell id="o8cPld0QiGwnag17MH1Z-64" value="Listner&amp;nbsp;" style="text;html=1;align=center;verticalAlign=middle;whiteSpace=wrap;rounded=0;" parent="1" vertex="1">
          <mxGeometry x="530" y="700" width="60" height="30" as="geometry" />
        </mxCell>
        <mxCell id="o8cPld0QiGwnag17MH1Z-66" style="edgeStyle=orthogonalEdgeStyle;rounded=0;orthogonalLoop=1;jettySize=auto;html=1;entryX=0.011;entryY=0.372;entryDx=0;entryDy=0;entryPerimeter=0;" parent="1" source="o8cPld0QiGwnag17MH1Z-64" target="o8cPld0QiGwnag17MH1Z-58" edge="1">
          <mxGeometry relative="1" as="geometry" />
        </mxCell>
        <mxCell id="o8cPld0QiGwnag17MH1Z-67" value="" style="endArrow=classic;startArrow=classic;html=1;rounded=0;exitX=0.5;exitY=0;exitDx=0;exitDy=0;" parent="1" source="o8cPld0QiGwnag17MH1Z-35" target="o8cPld0QiGwnag17MH1Z-61" edge="1">
          <mxGeometry width="50" height="50" relative="1" as="geometry">
            <mxPoint x="692.5" y="740" as="sourcePoint" />
            <mxPoint x="742.5" y="690" as="targetPoint" />
          </mxGeometry>
        </mxCell>
        <mxCell id="o8cPld0QiGwnag17MH1Z-68" value="HA&amp;nbsp;" style="text;html=1;align=center;verticalAlign=middle;whiteSpace=wrap;rounded=0;" parent="1" vertex="1">
          <mxGeometry x="670" y="530" width="60" height="30" as="geometry" />
        </mxCell>
        <mxCell id="o8cPld0QiGwnag17MH1Z-69" value="" style="rounded=1;whiteSpace=wrap;html=1;" parent="1" vertex="1">
          <mxGeometry x="510" y="1000" width="350" height="190" as="geometry" />
        </mxCell>
        <mxCell id="o8cPld0QiGwnag17MH1Z-70" value="SMB&amp;nbsp;" style="text;html=1;align=center;verticalAlign=middle;whiteSpace=wrap;rounded=0;" parent="1" vertex="1">
          <mxGeometry x="515" y="1020" width="60" height="30" as="geometry" />
        </mxCell>
        <mxCell id="o8cPld0QiGwnag17MH1Z-71" style="edgeStyle=orthogonalEdgeStyle;rounded=0;orthogonalLoop=1;jettySize=auto;html=1;entryX=0.613;entryY=-0.007;entryDx=0;entryDy=0;entryPerimeter=0;" parent="1" source="o8cPld0QiGwnag17MH1Z-58" target="o8cPld0QiGwnag17MH1Z-69" edge="1">
          <mxGeometry relative="1" as="geometry" />
        </mxCell>
        <mxCell id="o8cPld0QiGwnag17MH1Z-72" value="20TB" style="text;html=1;align=center;verticalAlign=middle;whiteSpace=wrap;rounded=0;" parent="1" vertex="1">
          <mxGeometry x="580" y="1020" width="60" height="30" as="geometry" />
        </mxCell>
        <mxCell id="o8cPld0QiGwnag17MH1Z-73" value="Peoget is 5-10 years&amp;nbsp;" style="text;html=1;align=center;verticalAlign=middle;whiteSpace=wrap;rounded=0;" parent="1" vertex="1">
          <mxGeometry x="30" y="1020" width="290" height="80" as="geometry" />
        </mxCell>
        <mxCell id="o8cPld0QiGwnag17MH1Z-74" value="Slowness in downloading packages&amp;nbsp;" style="text;html=1;align=center;verticalAlign=middle;whiteSpace=wrap;rounded=0;" parent="1" vertex="1">
          <mxGeometry x="40" y="1090" width="270" height="50" as="geometry" />
        </mxCell>
        <mxCell id="o8cPld0QiGwnag17MH1Z-76" value="" style="rounded=1;whiteSpace=wrap;html=1;" parent="1" vertex="1">
          <mxGeometry x="-340" y="480" width="200" height="735" as="geometry" />
        </mxCell>
        <mxCell id="o8cPld0QiGwnag17MH1Z-77" value="Jenkins&amp;nbsp;" style="text;html=1;align=center;verticalAlign=middle;whiteSpace=wrap;rounded=0;" parent="1" vertex="1">
          <mxGeometry x="-270" y="600" width="60" height="30" as="geometry" />
        </mxCell>
        <mxCell id="o8cPld0QiGwnag17MH1Z-78" value="" style="endArrow=classic;html=1;rounded=0;exitX=-0.007;exitY=0.517;exitDx=0;exitDy=0;exitPerimeter=0;" parent="1" source="o8cPld0QiGwnag17MH1Z-75" target="o8cPld0QiGwnag17MH1Z-76" edge="1">
          <mxGeometry width="50" height="50" relative="1" as="geometry">
            <mxPoint x="380" y="890" as="sourcePoint" />
            <mxPoint x="430" y="840" as="targetPoint" />
            <Array as="points">
              <mxPoint x="-80" y="869" />
            </Array>
          </mxGeometry>
        </mxCell>
        <mxCell id="o8cPld0QiGwnag17MH1Z-79" value="VIP" style="text;html=1;align=center;verticalAlign=middle;whiteSpace=wrap;rounded=0;" parent="1" vertex="1">
          <mxGeometry x="120" y="730" width="60" height="30" as="geometry" />
        </mxCell>
        <mxCell id="o8cPld0QiGwnag17MH1Z-80" value="Proget.surya.com" style="text;html=1;align=center;verticalAlign=middle;whiteSpace=wrap;rounded=0;" parent="1" vertex="1">
          <mxGeometry x="50" y="730" width="60" height="30" as="geometry" />
        </mxCell>
        <mxCell id="Mz2o_tIRomysvnrf8cTj-1" value="" style="rounded=1;whiteSpace=wrap;html=1;" parent="1" vertex="1">
          <mxGeometry x="-560" y="1420" width="500" height="350" as="geometry" />
        </mxCell>
        <mxCell id="Mz2o_tIRomysvnrf8cTj-2" value="" style="rounded=1;whiteSpace=wrap;html=1;" parent="1" vertex="1">
          <mxGeometry x="-520" y="1680" width="400" height="70" as="geometry" />
        </mxCell>
        <mxCell id="Mz2o_tIRomysvnrf8cTj-3" value="Docker&amp;nbsp;" style="text;html=1;align=center;verticalAlign=middle;whiteSpace=wrap;rounded=0;" parent="1" vertex="1">
          <mxGeometry x="-390" y="1700" width="60" height="30" as="geometry" />
        </mxCell>
        <mxCell id="Mz2o_tIRomysvnrf8cTj-4" value="VM&amp;nbsp;" style="text;html=1;align=center;verticalAlign=middle;whiteSpace=wrap;rounded=0;" parent="1" vertex="1">
          <mxGeometry x="-380" y="1780" width="60" height="30" as="geometry" />
        </mxCell>
        <mxCell id="Mz2o_tIRomysvnrf8cTj-5" value="" style="whiteSpace=wrap;html=1;aspect=fixed;" parent="1" vertex="1">
          <mxGeometry x="-510" y="1490" width="160" height="160" as="geometry" />
        </mxCell>
        <mxCell id="Mz2o_tIRomysvnrf8cTj-6" value="" style="whiteSpace=wrap;html=1;aspect=fixed;" parent="1" vertex="1">
          <mxGeometry x="-320" y="1490" width="160" height="160" as="geometry" />
        </mxCell>
        <mxCell id="Mz2o_tIRomysvnrf8cTj-7" value="Conatiners&amp;nbsp;" style="text;html=1;align=center;verticalAlign=middle;whiteSpace=wrap;rounded=0;" parent="1" vertex="1">
          <mxGeometry x="-470" y="1500" width="60" height="30" as="geometry" />
        </mxCell>
        <mxCell id="Mz2o_tIRomysvnrf8cTj-8" value="Conatiners&amp;nbsp;" style="text;html=1;align=center;verticalAlign=middle;whiteSpace=wrap;rounded=0;" parent="1" vertex="1">
          <mxGeometry x="-270" y="1510" width="60" height="30" as="geometry" />
        </mxCell>
        <mxCell id="Mz2o_tIRomysvnrf8cTj-9" value="" style="rounded=1;whiteSpace=wrap;html=1;" parent="1" vertex="1">
          <mxGeometry x="30" y="1410" width="450" height="360" as="geometry" />
        </mxCell>
        <mxCell id="Mz2o_tIRomysvnrf8cTj-10" value="Application&amp;nbsp;" style="text;html=1;align=center;verticalAlign=middle;whiteSpace=wrap;rounded=0;" parent="1" vertex="1">
          <mxGeometry x="190" y="1520" width="60" height="30" as="geometry" />
        </mxCell>
        <mxCell id="Mz2o_tIRomysvnrf8cTj-11" value="Application" style="text;html=1;align=center;verticalAlign=middle;whiteSpace=wrap;rounded=0;" parent="1" vertex="1">
          <mxGeometry x="-470" y="1555" width="60" height="30" as="geometry" />
        </mxCell>
        <mxCell id="Mz2o_tIRomysvnrf8cTj-13" value="" style="sketch=0;outlineConnect=0;fontColor=#232F3E;gradientColor=none;fillColor=#ED7100;strokeColor=none;dashed=0;verticalLabelPosition=bottom;verticalAlign=top;align=center;html=1;fontSize=12;fontStyle=0;aspect=fixed;pointerEvents=1;shape=mxgraph.aws4.container_1;" parent="1" vertex="1">
          <mxGeometry x="250" y="1900" width="187.36" height="121" as="geometry" />
        </mxCell>
        <mxCell id="Mz2o_tIRomysvnrf8cTj-19" style="edgeStyle=orthogonalEdgeStyle;rounded=0;orthogonalLoop=1;jettySize=auto;html=1;" parent="1" source="Mz2o_tIRomysvnrf8cTj-15" edge="1">
          <mxGeometry relative="1" as="geometry">
            <mxPoint x="-210" y="1950" as="targetPoint" />
          </mxGeometry>
        </mxCell>
        <mxCell id="Mz2o_tIRomysvnrf8cTj-15" value="" style="whiteSpace=wrap;html=1;shape=mxgraph.basic.document" parent="1" vertex="1">
          <mxGeometry x="-630" y="1900" width="100" height="100" as="geometry" />
        </mxCell>
        <mxCell id="Mz2o_tIRomysvnrf8cTj-16" value="&lt;font style=&quot;font-size: 15px;&quot;&gt;Dockerfile&lt;/font&gt;" style="text;html=1;align=center;verticalAlign=middle;whiteSpace=wrap;rounded=0;" parent="1" vertex="1">
          <mxGeometry x="-610" y="2010" width="60" height="30" as="geometry" />
        </mxCell>
        <mxCell id="Mz2o_tIRomysvnrf8cTj-17" value="Container&amp;nbsp;" style="text;html=1;align=center;verticalAlign=middle;whiteSpace=wrap;rounded=0;" parent="1" vertex="1">
          <mxGeometry x="310" y="2020" width="60" height="30" as="geometry" />
        </mxCell>
        <mxCell id="Mz2o_tIRomysvnrf8cTj-20" style="edgeStyle=orthogonalEdgeStyle;rounded=0;orthogonalLoop=1;jettySize=auto;html=1;" parent="1" source="Mz2o_tIRomysvnrf8cTj-18" edge="1">
          <mxGeometry relative="1" as="geometry">
            <mxPoint x="240" y="1955" as="targetPoint" />
          </mxGeometry>
        </mxCell>
        <mxCell id="Mz2o_tIRomysvnrf8cTj-18" value="" style="sketch=0;outlineConnect=0;fontColor=#232F3E;gradientColor=none;fillColor=#ED7100;strokeColor=none;dashed=0;verticalLabelPosition=bottom;verticalAlign=top;align=center;html=1;fontSize=12;fontStyle=0;aspect=fixed;pointerEvents=1;shape=mxgraph.aws4.container_registry_image;" parent="1" vertex="1">
          <mxGeometry x="-200" y="1910" width="90" height="90" as="geometry" />
        </mxCell>
        <mxCell id="Mz2o_tIRomysvnrf8cTj-21" value="Docker Image&amp;nbsp;" style="text;html=1;align=center;verticalAlign=middle;whiteSpace=wrap;rounded=0;" parent="1" vertex="1">
          <mxGeometry x="-240" y="2010" width="165" height="40" as="geometry" />
        </mxCell>
        <mxCell id="8guPvn3R2oZE80Hqtptw-2" value="" style="rounded=1;whiteSpace=wrap;html=1;" parent="1" vertex="1">
          <mxGeometry x="-560" y="2715" width="500" height="350" as="geometry" />
        </mxCell>
        <mxCell id="8guPvn3R2oZE80Hqtptw-3" value="" style="rounded=1;whiteSpace=wrap;html=1;" parent="1" vertex="1">
          <mxGeometry x="-520" y="2975" width="400" height="70" as="geometry" />
        </mxCell>
        <mxCell id="8guPvn3R2oZE80Hqtptw-4" value="Docker&amp;nbsp;" style="text;html=1;align=center;verticalAlign=middle;whiteSpace=wrap;rounded=0;" parent="1" vertex="1">
          <mxGeometry x="-390" y="2995" width="60" height="30" as="geometry" />
        </mxCell>
        <mxCell id="8guPvn3R2oZE80Hqtptw-5" value="" style="whiteSpace=wrap;html=1;aspect=fixed;" parent="1" vertex="1">
          <mxGeometry x="-510" y="2785" width="160" height="160" as="geometry" />
        </mxCell>
        <mxCell id="8guPvn3R2oZE80Hqtptw-7" value="Conatiners&amp;nbsp;" style="text;html=1;align=center;verticalAlign=middle;whiteSpace=wrap;rounded=0;" parent="1" vertex="1">
          <mxGeometry x="-460" y="2755" width="60" height="30" as="geometry" />
        </mxCell>
        <mxCell id="8guPvn3R2oZE80Hqtptw-9" value="Tomcat&amp;nbsp;" style="text;html=1;align=center;verticalAlign=middle;whiteSpace=wrap;rounded=0;" parent="1" vertex="1">
          <mxGeometry x="-470" y="2815" width="60" height="30" as="geometry" />
        </mxCell>
        <mxCell id="8guPvn3R2oZE80Hqtptw-11" value=".war&amp;nbsp;" style="text;html=1;align=center;verticalAlign=middle;whiteSpace=wrap;rounded=0;" parent="1" vertex="1">
          <mxGeometry x="-470" y="2845" width="60" height="30" as="geometry" />
        </mxCell>
        <mxCell id="8guPvn3R2oZE80Hqtptw-12" value="8080" style="text;html=1;align=center;verticalAlign=middle;whiteSpace=wrap;rounded=0;" parent="1" vertex="1">
          <mxGeometry x="-410" y="2755" width="60" height="30" as="geometry" />
        </mxCell>
        <mxCell id="8guPvn3R2oZE80Hqtptw-13" value="" style="shape=flexArrow;endArrow=classic;html=1;rounded=0;" parent="1" edge="1">
          <mxGeometry width="50" height="50" relative="1" as="geometry">
            <mxPoint x="-355" y="2765" as="sourcePoint" />
            <mxPoint x="-355" y="2710" as="targetPoint" />
          </mxGeometry>
        </mxCell>
        <mxCell id="8guPvn3R2oZE80Hqtptw-16" value="VM&amp;nbsp;" style="text;html=1;align=center;verticalAlign=middle;whiteSpace=wrap;rounded=0;" parent="1" vertex="1">
          <mxGeometry x="-305" y="2640" width="60" height="30" as="geometry" />
        </mxCell>
        <mxCell id="8guPvn3R2oZE80Hqtptw-17" value="FROM&amp;nbsp;&lt;br&gt;RUN&amp;nbsp;" style="text;html=1;align=center;verticalAlign=middle;whiteSpace=wrap;rounded=0;" parent="1" vertex="1">
          <mxGeometry x="-620" y="2060" width="60" height="30" as="geometry" />
        </mxCell>
        <mxCell id="8guPvn3R2oZE80Hqtptw-18" value="ubuntu&amp;nbsp;&lt;br&gt;Java image&amp;nbsp;" style="text;html=1;align=center;verticalAlign=middle;whiteSpace=wrap;rounded=0;" parent="1" vertex="1">
          <mxGeometry x="-750" y="2040" width="120" height="50" as="geometry" />
        </mxCell>
        <mxCell id="8guPvn3R2oZE80Hqtptw-19" value="ENTRYPOINT &lt;br&gt;CMD&amp;nbsp;" style="text;html=1;align=center;verticalAlign=middle;whiteSpace=wrap;rounded=0;" parent="1" vertex="1">
          <mxGeometry x="-70" y="1950" width="130" height="60" as="geometry" />
        </mxCell>
        <mxCell id="8guPvn3R2oZE80Hqtptw-20" value="ADD&lt;br&gt;COPY&amp;nbsp;" style="text;html=1;align=center;verticalAlign=middle;whiteSpace=wrap;rounded=0;" parent="1" vertex="1">
          <mxGeometry x="-680" y="1840" width="90" height="50" as="geometry" />
        </mxCell>
        <mxCell id="8guPvn3R2oZE80Hqtptw-21" value="expose&amp;nbsp;" style="text;html=1;align=center;verticalAlign=middle;whiteSpace=wrap;rounded=0;" parent="1" vertex="1">
          <mxGeometry x="300" y="1850" width="60" height="30" as="geometry" />
        </mxCell>
        <mxCell id="8guPvn3R2oZE80Hqtptw-22" value="LABEL&amp;nbsp; aurhot=&amp;nbsp;&lt;div&gt;version=&lt;/div&gt;&lt;div&gt;project&amp;nbsp;&lt;/div&gt;" style="text;html=1;align=center;verticalAlign=middle;whiteSpace=wrap;rounded=0;" parent="1" vertex="1">
          <mxGeometry x="-820" y="1915" width="200" height="80" as="geometry" />
        </mxCell>
        <mxCell id="8guPvn3R2oZE80Hqtptw-23" value="ARG&amp;nbsp;" style="text;html=1;align=center;verticalAlign=middle;whiteSpace=wrap;rounded=0;" parent="1" vertex="1">
          <mxGeometry x="-630" y="2120" width="60" height="30" as="geometry" />
        </mxCell>
        <mxCell id="8guPvn3R2oZE80Hqtptw-24" value="ENV" style="text;html=1;align=center;verticalAlign=middle;whiteSpace=wrap;rounded=0;" parent="1" vertex="1">
          <mxGeometry x="260" y="2060" width="60" height="30" as="geometry" />
        </mxCell>
        <mxCell id="8guPvn3R2oZE80Hqtptw-25" value="name=teja" style="text;html=1;align=center;verticalAlign=middle;whiteSpace=wrap;rounded=0;" parent="1" vertex="1">
          <mxGeometry x="-560" y="2120" width="60" height="30" as="geometry" />
        </mxCell>
        <mxCell id="8guPvn3R2oZE80Hqtptw-26" value="name=surya&amp;nbsp;" style="text;html=1;align=center;verticalAlign=middle;whiteSpace=wrap;rounded=0;" parent="1" vertex="1">
          <mxGeometry x="350" y="2060" width="60" height="30" as="geometry" />
        </mxCell>
        <mxCell id="8guPvn3R2oZE80Hqtptw-27" value="echo $name&amp;nbsp;&lt;br&gt;Surya&amp;nbsp;" style="text;html=1;align=center;verticalAlign=middle;whiteSpace=wrap;rounded=0;" parent="1" vertex="1">
          <mxGeometry x="340" y="2100" width="60" height="30" as="geometry" />
        </mxCell>
        <mxCell id="8guPvn3R2oZE80Hqtptw-28" value="" style="rounded=1;whiteSpace=wrap;html=1;" parent="1" vertex="1">
          <mxGeometry x="-390" y="2220" width="660" height="290" as="geometry" />
        </mxCell>
        <mxCell id="8guPvn3R2oZE80Hqtptw-29" value="Dockerpractice" style="text;html=1;align=center;verticalAlign=middle;whiteSpace=wrap;rounded=0;" parent="1" vertex="1">
          <mxGeometry x="-120" y="2520" width="60" height="30" as="geometry" />
        </mxCell>
        <mxCell id="8guPvn3R2oZE80Hqtptw-30" value="" style="rounded=1;whiteSpace=wrap;html=1;" parent="1" vertex="1">
          <mxGeometry x="-290" y="2440" width="500" height="40" as="geometry" />
        </mxCell>
        <mxCell id="8guPvn3R2oZE80Hqtptw-31" value="Docker" style="text;html=1;align=center;verticalAlign=middle;whiteSpace=wrap;rounded=0;" parent="1" vertex="1">
          <mxGeometry x="-130" y="2440" width="60" height="30" as="geometry" />
        </mxCell>
        <mxCell id="8guPvn3R2oZE80Hqtptw-32" value="" style="rounded=1;whiteSpace=wrap;html=1;" parent="1" vertex="1">
          <mxGeometry x="-190" y="2280" width="160" height="150" as="geometry" />
        </mxCell>
        <mxCell id="8guPvn3R2oZE80Hqtptw-33" value="Container" style="text;html=1;align=center;verticalAlign=middle;whiteSpace=wrap;rounded=0;" parent="1" vertex="1">
          <mxGeometry x="-150" y="2250" width="60" height="30" as="geometry" />
        </mxCell>
        <mxCell id="8guPvn3R2oZE80Hqtptw-34" value="tomcat&amp;nbsp;&lt;br&gt;.war" style="text;html=1;align=center;verticalAlign=middle;whiteSpace=wrap;rounded=0;" parent="1" vertex="1">
          <mxGeometry x="-150" y="2300" width="60" height="30" as="geometry" />
        </mxCell>
        <mxCell id="8guPvn3R2oZE80Hqtptw-37" value="" style="shape=flexArrow;endArrow=classic;html=1;rounded=0;" parent="1" edge="1">
          <mxGeometry width="50" height="50" relative="1" as="geometry">
            <mxPoint x="-210" y="2280" as="sourcePoint" />
            <mxPoint x="-200" y="2200" as="targetPoint" />
            <Array as="points">
              <mxPoint x="-200" y="2270" />
            </Array>
          </mxGeometry>
        </mxCell>
        <mxCell id="8guPvn3R2oZE80Hqtptw-38" value="port&amp;nbsp;" style="text;html=1;align=center;verticalAlign=middle;whiteSpace=wrap;rounded=0;" parent="1" vertex="1">
          <mxGeometry x="-190" y="2180" width="60" height="30" as="geometry" />
        </mxCell>
        <mxCell id="5dSfD-6rdvg-DJ3gG_yj-1" value="32769" style="text;html=1;align=center;verticalAlign=middle;whiteSpace=wrap;rounded=0;" vertex="1" parent="1">
          <mxGeometry x="-390" y="2660" width="60" height="30" as="geometry" />
        </mxCell>
        <mxCell id="5dSfD-6rdvg-DJ3gG_yj-2" value="" style="shape=cylinder3;whiteSpace=wrap;html=1;boundedLbl=1;backgroundOutline=1;size=15;" vertex="1" parent="1">
          <mxGeometry x="-300" y="2840" width="60" height="80" as="geometry" />
        </mxCell>
        <mxCell id="5dSfD-6rdvg-DJ3gG_yj-3" value="" style="endArrow=classic;html=1;rounded=0;" edge="1" parent="1" source="8guPvn3R2oZE80Hqtptw-5">
          <mxGeometry width="50" height="50" relative="1" as="geometry">
            <mxPoint x="-230" y="2940" as="sourcePoint" />
            <mxPoint x="-310" y="2870" as="targetPoint" />
          </mxGeometry>
        </mxCell>
        <mxCell id="5dSfD-6rdvg-DJ3gG_yj-7" style="edgeStyle=orthogonalEdgeStyle;rounded=0;orthogonalLoop=1;jettySize=auto;html=1;" edge="1" parent="1" source="5dSfD-6rdvg-DJ3gG_yj-5" target="5dSfD-6rdvg-DJ3gG_yj-8">
          <mxGeometry relative="1" as="geometry">
            <mxPoint x="-600" y="3240" as="targetPoint" />
          </mxGeometry>
        </mxCell>
        <mxCell id="5dSfD-6rdvg-DJ3gG_yj-5" value="" style="rounded=1;whiteSpace=wrap;html=1;" vertex="1" parent="1">
          <mxGeometry x="-820" y="3210" width="120" height="60" as="geometry" />
        </mxCell>
        <mxCell id="5dSfD-6rdvg-DJ3gG_yj-6" value="Git&amp;nbsp;" style="text;html=1;align=center;verticalAlign=middle;whiteSpace=wrap;rounded=0;" vertex="1" parent="1">
          <mxGeometry x="-800" y="3220" width="60" height="30" as="geometry" />
        </mxCell>
        <mxCell id="5dSfD-6rdvg-DJ3gG_yj-10" style="edgeStyle=orthogonalEdgeStyle;rounded=0;orthogonalLoop=1;jettySize=auto;html=1;" edge="1" parent="1" source="5dSfD-6rdvg-DJ3gG_yj-8">
          <mxGeometry relative="1" as="geometry">
            <mxPoint x="-460" y="3240" as="targetPoint" />
          </mxGeometry>
        </mxCell>
        <mxCell id="5dSfD-6rdvg-DJ3gG_yj-8" value="" style="rounded=1;whiteSpace=wrap;html=1;" vertex="1" parent="1">
          <mxGeometry x="-660" y="3210" width="140" height="60" as="geometry" />
        </mxCell>
        <mxCell id="5dSfD-6rdvg-DJ3gG_yj-9" value="MVN&amp;nbsp;&lt;br&gt;Docker&amp;nbsp;" style="text;html=1;align=center;verticalAlign=middle;whiteSpace=wrap;rounded=0;" vertex="1" parent="1">
          <mxGeometry x="-620" y="3220" width="60" height="30" as="geometry" />
        </mxCell>
        <mxCell id="5dSfD-6rdvg-DJ3gG_yj-11" value="" style="rounded=1;whiteSpace=wrap;html=1;" vertex="1" parent="1">
          <mxGeometry x="-460" y="3150" width="590" height="360" as="geometry" />
        </mxCell>
        <mxCell id="5dSfD-6rdvg-DJ3gG_yj-12" value="K8s Cluster&amp;nbsp;" style="text;html=1;align=center;verticalAlign=middle;whiteSpace=wrap;rounded=0;" vertex="1" parent="1">
          <mxGeometry x="-220" y="3110" width="60" height="30" as="geometry" />
        </mxCell>
        <mxCell id="5dSfD-6rdvg-DJ3gG_yj-13" value="" style="rounded=1;whiteSpace=wrap;html=1;" vertex="1" parent="1">
          <mxGeometry x="-430" y="3180" width="510" height="90" as="geometry" />
        </mxCell>
        <mxCell id="5dSfD-6rdvg-DJ3gG_yj-14" value="" style="whiteSpace=wrap;html=1;aspect=fixed;" vertex="1" parent="1">
          <mxGeometry x="-400" y="3310" width="150" height="150" as="geometry" />
        </mxCell>
        <mxCell id="5dSfD-6rdvg-DJ3gG_yj-15" value="" style="whiteSpace=wrap;html=1;aspect=fixed;" vertex="1" parent="1">
          <mxGeometry x="-130" y="3300" width="150" height="150" as="geometry" />
        </mxCell>
        <mxCell id="5dSfD-6rdvg-DJ3gG_yj-16" value="Master VM&amp;nbsp;" style="text;html=1;align=center;verticalAlign=middle;whiteSpace=wrap;rounded=0;" vertex="1" parent="1">
          <mxGeometry x="-245" y="3190" width="130" height="20" as="geometry" />
        </mxCell>
        <mxCell id="5dSfD-6rdvg-DJ3gG_yj-17" value="Worker&amp;nbsp;" style="text;html=1;align=center;verticalAlign=middle;whiteSpace=wrap;rounded=0;" vertex="1" parent="1">
          <mxGeometry x="-365" y="3310" width="60" height="30" as="geometry" />
        </mxCell>
        <mxCell id="5dSfD-6rdvg-DJ3gG_yj-18" value="Worker&amp;nbsp;" style="text;html=1;align=center;verticalAlign=middle;whiteSpace=wrap;rounded=0;" vertex="1" parent="1">
          <mxGeometry x="-90" y="3310" width="60" height="30" as="geometry" />
        </mxCell>
        <mxCell id="5dSfD-6rdvg-DJ3gG_yj-19" value="" style="shape=cube;whiteSpace=wrap;html=1;boundedLbl=1;backgroundOutline=1;darkOpacity=0.05;darkOpacity2=0.1;" vertex="1" parent="1">
          <mxGeometry x="-350" y="3365" width="60" height="40" as="geometry" />
        </mxCell>
        <mxCell id="5dSfD-6rdvg-DJ3gG_yj-22" value="" style="shape=cube;whiteSpace=wrap;html=1;boundedLbl=1;backgroundOutline=1;darkOpacity=0.05;darkOpacity2=0.1;" vertex="1" parent="1">
          <mxGeometry x="-75" y="3365" width="60" height="40" as="geometry" />
        </mxCell>
        <mxCell id="5dSfD-6rdvg-DJ3gG_yj-23" value="API Server&amp;nbsp;" style="text;html=1;align=center;verticalAlign=middle;whiteSpace=wrap;rounded=0;" vertex="1" parent="1">
          <mxGeometry x="-210" y="3230" width="60" height="30" as="geometry" />
        </mxCell>
        <mxCell id="5dSfD-6rdvg-DJ3gG_yj-24" value="6443" style="text;html=1;align=center;verticalAlign=middle;whiteSpace=wrap;rounded=0;" vertex="1" parent="1">
          <mxGeometry x="-210" y="3250" width="60" height="30" as="geometry" />
        </mxCell>
        <mxCell id="5dSfD-6rdvg-DJ3gG_yj-25" value="etcd" style="text;html=1;align=center;verticalAlign=middle;whiteSpace=wrap;rounded=0;" vertex="1" parent="1">
          <mxGeometry x="-425" y="3190" width="60" height="30" as="geometry" />
        </mxCell>
        <mxCell id="5dSfD-6rdvg-DJ3gG_yj-26" value="Scheduler&amp;nbsp;" style="text;html=1;align=center;verticalAlign=middle;whiteSpace=wrap;rounded=0;" vertex="1" parent="1">
          <mxGeometry x="-30" y="3190" width="60" height="30" as="geometry" />
        </mxCell>
        <mxCell id="5dSfD-6rdvg-DJ3gG_yj-27" value="Controller Manageer&amp;nbsp;" style="text;html=1;align=center;verticalAlign=middle;whiteSpace=wrap;rounded=0;" vertex="1" parent="1">
          <mxGeometry x="-380" y="3225" width="60" height="30" as="geometry" />
        </mxCell>
        <mxCell id="5dSfD-6rdvg-DJ3gG_yj-28" value="Kublet&amp;nbsp;" style="text;html=1;align=center;verticalAlign=middle;whiteSpace=wrap;rounded=0;" vertex="1" parent="1">
          <mxGeometry x="-400" y="3330" width="60" height="30" as="geometry" />
        </mxCell>
        <mxCell id="5dSfD-6rdvg-DJ3gG_yj-29" value="Kublet&amp;nbsp;" style="text;html=1;align=center;verticalAlign=middle;whiteSpace=wrap;rounded=0;" vertex="1" parent="1">
          <mxGeometry x="-150" y="3320" width="60" height="30" as="geometry" />
        </mxCell>
        <mxCell id="5dSfD-6rdvg-DJ3gG_yj-30" value="" style="shape=flexArrow;endArrow=classic;startArrow=classic;html=1;rounded=0;" edge="1" parent="1" source="5dSfD-6rdvg-DJ3gG_yj-14" target="5dSfD-6rdvg-DJ3gG_yj-15">
          <mxGeometry width="100" height="100" relative="1" as="geometry">
            <mxPoint x="-290" y="3480" as="sourcePoint" />
            <mxPoint x="-190" y="3380" as="targetPoint" />
          </mxGeometry>
        </mxCell>
        <mxCell id="5dSfD-6rdvg-DJ3gG_yj-31" value="kube-proxy&amp;nbsp;" style="text;html=1;align=center;verticalAlign=middle;whiteSpace=wrap;rounded=0;" vertex="1" parent="1">
          <mxGeometry x="-260" y="3340" width="120" height="40" as="geometry" />
        </mxCell>
        <mxCell id="5dSfD-6rdvg-DJ3gG_yj-32" value="Weave-net&amp;nbsp;" style="text;html=1;align=center;verticalAlign=middle;whiteSpace=wrap;rounded=0;" vertex="1" parent="1">
          <mxGeometry x="-230" y="3380" width="80" height="35" as="geometry" />
        </mxCell>
        <mxCell id="5dSfD-6rdvg-DJ3gG_yj-33" value="" style="rounded=1;whiteSpace=wrap;html=1;" vertex="1" parent="1">
          <mxGeometry x="-630" y="3600" width="320" height="130" as="geometry" />
        </mxCell>
        <mxCell id="5dSfD-6rdvg-DJ3gG_yj-34" value="Pod" style="text;html=1;align=center;verticalAlign=middle;whiteSpace=wrap;rounded=0;" vertex="1" parent="1">
          <mxGeometry x="-620" y="3560" width="60" height="30" as="geometry" />
        </mxCell>
        <mxCell id="5dSfD-6rdvg-DJ3gG_yj-35" value="Conatiner&amp;nbsp;" style="text;html=1;align=center;verticalAlign=middle;whiteSpace=wrap;rounded=0;" vertex="1" parent="1">
          <mxGeometry x="-600" y="3630" width="60" height="30" as="geometry" />
        </mxCell>
        <mxCell id="5dSfD-6rdvg-DJ3gG_yj-36" value="Conatiner&amp;nbsp;" style="text;html=1;align=center;verticalAlign=middle;whiteSpace=wrap;rounded=0;" vertex="1" parent="1">
          <mxGeometry x="-510" y="3630" width="60" height="30" as="geometry" />
        </mxCell>
        <mxCell id="5dSfD-6rdvg-DJ3gG_yj-37" value="Conatiner&amp;nbsp;" style="text;html=1;align=center;verticalAlign=middle;whiteSpace=wrap;rounded=0;" vertex="1" parent="1">
          <mxGeometry x="-410" y="3630" width="60" height="30" as="geometry" />
        </mxCell>
      </root>
    </mxGraphModel>
  </diagram>
</mxfile>
